<?xml version="1.0" standalone="no"?>
<!DOCTYPE svg PUBLIC "-//W3C//DTD SVG 20010904//EN"
 "http://www.w3.org/TR/2001/REC-SVG-20010904/DTD/svg10.dtd">
<svg version="1.0" xmlns="http://www.w3.org/2000/svg"
 width="16.000000pt" height="16.000000pt" viewBox="0 0 16.000000 16.000000"
 preserveAspectRatio="xMidYMid meet">

<g transform="translate(0.000000,16.000000) scale(0.100000,-0.100000)"
fill="#000000" stroke="none">
<path d="M35 100 c-17 -19 -17 -21 0 -40 21 -23 35 -19 15 5 -10 12 -10 18 0
30 20 24 6 28 -15 5z"/>
<path d="M90 114 c0 -5 5 -15 12 -22 8 -8 8 -15 -2 -27 -20 -24 -6 -28 15 -5
18 20 18 21 -3 43 -12 12 -22 17 -22 11z"/>
</g>
</svg>
